<?xml version="1.0" encoding="UTF-8"?>
<svg xmlns="http://www.w3.org/2000/svg" version="1.1" width="500px" height="500px" viewBox="0 0 500 500">
  <path d="M195.5 178.5C219.846 177.559 241.18 185.059 259.5 201C268.984 209.651 278.318 218.484 287.5 227.5C303.818 208.675 323.151 193.842 345.5 183C351.262 180.559 357.262 179.392 363.5 179.5C363.5 188.833 363.5 198.167 363.5 207.5C353.486 208.339 344.486 211.839 336.5 218C325.664 226.67 315.664 236.17 306.5 246.5C318.993 262.173 333.993 274.673 351.5 284C355.414 285.283 359.414 286.116 363.5 286.5C363.5 295.833 363.5 305.167 363.5 314.5C352.034 313.511 341.367 310.011 331.5 304C325.658 300.246 319.991 296.246 314.5 292C305.321 283.487 296.155 274.987 287 266.5C279.209 273.289 271.709 280.456 264.5 288C251.204 299.983 235.871 308.316 218.5 313C180.725 319.868 154.558 305.701 140 270.5C129.733 222.302 148.233 191.636 195.5 178.5Z" fill="white"/>
  <path d="M196.5 206.5C209.741 205.448 222.074 208.281 233.5 215C246.091 224.589 257.758 235.255 268.5 247C261.833 253.667 255.167 260.333 248.5 267C238.654 275.925 227.321 282.258 214.5 286C187.615 290.31 171.449 279.143 166 252.5C164.752 229.584 174.919 214.251 196.5 206.5Z" fill="#010101"/>
</svg> 